<svg width="48" height="48" viewBox="0 0 48 48" fill="none" xmlns="http://www.w3.org/2000/svg">
<circle opacity="0.24" cx="24" cy="24" r="24" fill="black"/>
<path d="M18.8654 29.4072C18.5718 29.4076 18.2883 29.3055 18.069 29.1203L12 23.9994L18.406 18.5939C18.6448 18.4 18.9542 18.3028 19.2677 18.3232C19.5812 18.3436 19.8737 18.48 20.0824 18.7029C20.2911 18.9259 20.3992 19.2178 20.3836 19.5157C20.368 19.8136 20.2298 20.0937 19.9988 20.2959L15.6102 23.9994L19.6618 27.4172C19.8438 27.5705 19.9724 27.7727 20.0305 27.997C20.0885 28.2213 20.0734 28.4571 19.987 28.673C19.9005 28.889 19.747 29.0748 19.5467 29.206C19.3463 29.3371 19.1087 29.4073 18.8654 29.4072ZM29.594 29.4049L36 23.9994L29.931 18.8785C29.6933 18.678 29.3813 18.5754 29.0638 18.5933C28.7463 18.6111 28.4493 18.7479 28.2381 18.9736C28.0269 19.1993 27.9188 19.4954 27.9375 19.7968C27.9563 20.0981 28.1005 20.3801 28.3382 20.5806L32.3898 23.9994L28.0012 27.7018C27.7633 27.9023 27.619 28.1843 27.6001 28.4857C27.5812 28.7872 27.6892 29.0835 27.9005 29.3093C28.1117 29.5352 28.4088 29.6721 28.7264 29.6901C29.044 29.708 29.3561 29.6054 29.594 29.4049ZM23.9832 31.0182L26.382 17.3564C26.4127 17.2071 26.4115 17.0534 26.3786 16.9046C26.3457 16.7557 26.2816 16.6146 26.1903 16.4896C26.099 16.3646 25.9822 16.2583 25.8468 16.1768C25.7114 16.0954 25.5602 16.0406 25.4022 16.0155C25.2441 15.9905 25.0823 15.9958 24.9264 16.0311C24.7706 16.0664 24.6237 16.131 24.4946 16.2211C24.3654 16.3111 24.2566 16.4249 24.1745 16.5555C24.0925 16.6862 24.0388 16.8312 24.0168 16.9818L21.618 30.6436C21.5873 30.7929 21.5885 30.9466 21.6214 31.0954C21.6543 31.2443 21.7184 31.3854 21.8097 31.5104C21.901 31.6354 22.0178 31.7417 22.1532 31.8232C22.2886 31.9046 22.4398 31.9594 22.5978 31.9845C22.7559 32.0095 22.9177 32.0042 23.0736 31.9689C23.2294 31.9336 23.3763 31.869 23.5054 31.7789C23.6346 31.6889 23.7434 31.5751 23.8255 31.4445C23.9075 31.3138 23.9612 31.1688 23.9832 31.0182Z" fill="white"/>
</svg>
