<svg width="48" height="48" viewBox="0 0 48 48" fill="none" xmlns="http://www.w3.org/2000/svg">
<circle opacity="0.24" cx="24" cy="24" r="24" fill="black"/>
<path fill-rule="evenodd" clip-rule="evenodd" d="M23.9951 12C17.37 12.0026 12 17.3742 12 24C12 30.6274 17.3726 36 24 36H24.0128C24.6084 35.9994 25.0464 35.4356 24.9034 34.8575C24.7679 34.3097 24.6964 33.7366 24.6975 33.1467C24.6998 31.7934 25.0895 30.5258 25.7603 29.4492L23.9073 27.5961C23.0339 27.5654 22.217 27.2113 21.5957 26.59C21.2404 26.2347 20.7292 25.5154 20.393 23.3801C20.2239 22.3061 20.1788 21.3665 20.177 21.327L20.1268 20.2476L21.2063 20.2977C21.2458 20.2995 22.1853 20.3446 23.2593 20.5137C25.3946 20.8499 26.114 21.3612 26.4692 21.7164C27.0927 22.3399 27.4453 23.1622 27.4753 24.0279L29.8225 26.3751C30.4234 26.203 31.0565 26.1087 31.7099 26.105C32.7215 26.0991 33.6841 26.3062 34.5554 26.684C35.1079 26.9236 35.737 26.5793 35.8361 25.9853C35.945 25.3321 36.0013 24.6612 35.9999 23.9769C35.9874 17.3798 30.5919 11.9974 23.9951 12ZM16.8028 28.371C16.6336 28.4393 16.4588 28.4713 16.2871 28.4713C15.7382 28.4713 15.2188 28.1427 15.0016 27.6025C14.7167 26.8929 15.0607 26.0867 15.7708 25.8012C16.4804 25.5162 17.2865 25.8609 17.5714 26.5704C17.8564 27.28 17.5124 28.0861 16.8028 28.371ZM17.7708 20.9809C17.5308 21.4732 17.0379 21.7593 16.5253 21.7593C16.3216 21.7593 16.1148 21.7144 15.9198 21.619C15.2324 21.2843 14.9462 20.4553 15.2816 19.7679H15.281C15.6164 19.0806 16.4447 18.795 17.1327 19.1298C17.8201 19.4646 18.1056 20.2935 17.7708 20.9809ZM21.0933 30.3988C21.4582 30.3988 21.8145 30.5465 22.0724 30.8043C22.3302 31.0616 22.4779 31.4185 22.4779 31.7834C22.4779 32.1477 22.3302 32.5046 22.0724 32.7625C21.8145 33.0197 21.4582 33.1674 21.0933 33.1674C20.729 33.1674 20.3721 33.0197 20.1142 32.7625C19.8564 32.5046 19.7087 32.1477 19.7087 31.7834C19.7087 31.4185 19.8564 31.0616 20.1142 30.8043C20.3721 30.5465 20.729 30.3988 21.0933 30.3988ZM22.0428 17.3581C21.9117 17.3969 21.7801 17.4154 21.6496 17.4154C21.0521 17.4154 20.5007 17.0252 20.3228 16.4228C20.1062 15.6892 20.5247 14.9193 21.2582 14.7028C21.9917 14.4861 22.7616 14.9052 22.9782 15.6382C23.1948 16.3717 22.7764 17.1415 22.0428 17.3581ZM29.4884 17.6276C29.2268 18.0542 28.7721 18.2892 28.3062 18.2892C28.0594 18.2892 27.8096 18.2228 27.5844 18.0849C26.9321 17.6849 26.7277 16.8326 27.1271 16.1809C27.5265 15.5286 28.3788 15.3243 29.0311 15.7237C29.6834 16.1231 29.8877 16.9754 29.4884 17.6276ZM33.1357 23.3988C32.8779 23.6566 32.521 23.8043 32.1567 23.8043C31.7924 23.8043 31.4354 23.6567 31.1776 23.3988C30.9197 23.1415 30.7721 22.7847 30.7721 22.4197C30.7721 22.0554 30.9197 21.6985 31.1776 21.4406C31.4354 21.1834 31.7924 21.0351 32.1567 21.0351C32.521 21.0351 32.8779 21.1834 33.1357 21.4406C33.3936 21.6985 33.5413 22.0554 33.5413 22.4197C33.5413 22.7846 33.3936 23.1409 33.1357 23.3988ZM27.3004 25.2452C27.1318 25.7488 26.8478 26.2115 26.4693 26.5899C26.091 26.9684 25.6282 27.2523 25.1246 27.4209L31.8117 34.1079C32.4065 34.7028 33.3708 34.7028 33.9657 34.1079L33.9874 34.0861C34.5823 33.4913 34.5823 32.527 33.9874 31.9322L27.3004 25.2452ZM21.1606 21.2812C21.1606 21.2812 24.8115 21.4509 25.7731 22.4125C26.3227 22.9621 26.5581 23.7067 26.4789 24.4237C26.4198 24.9607 26.1847 25.482 25.7731 25.8936C25.3615 26.3053 24.8402 26.5402 24.3032 26.5994C23.5862 26.6786 22.8416 26.4432 22.292 25.8936C21.3303 24.932 21.1606 21.2812 21.1606 21.2812Z" fill="white"/>
</svg>
